<svg width="9" height="10" viewBox="0 0 9 10" fill="none" xmlns="http://www.w3.org/2000/svg">
<path d="M8.78619 7.438C8.78619 7.998 8.64152 8.46933 8.35219 8.852C8.06285 9.22533 7.67085 9.51 7.17619 9.706C6.69085 9.902 6.15885 10 5.58019 10H0.778188V0.0599995H6.09819C6.56485 0.0599995 6.96619 0.186 7.30219 0.438C7.64752 0.680666 7.90885 0.998 8.08619 1.39C8.27285 1.77267 8.36619 2.174 8.36619 2.594C8.36619 3.07 8.24485 3.52267 8.00219 3.952C7.75952 4.38133 7.40485 4.69867 6.93819 4.904C7.50752 5.072 7.95552 5.37533 8.28219 5.814C8.61819 6.25267 8.78619 6.794 8.78619 7.438ZM6.84019 7.074C6.84019 6.822 6.78885 6.598 6.68619 6.402C6.58352 6.19667 6.44352 6.038 6.26619 5.926C6.09819 5.80467 5.90219 5.744 5.67819 5.744H2.71019V8.362H5.58019C5.81352 8.362 6.02352 8.306 6.21019 8.194C6.40619 8.07267 6.56019 7.914 6.67219 7.718C6.78419 7.522 6.84019 7.30733 6.84019 7.074ZM2.71019 1.712V4.218H5.28619C5.50085 4.218 5.69685 4.16667 5.87419 4.064C6.05152 3.96133 6.19152 3.81667 6.29419 3.63C6.40619 3.44333 6.46219 3.21933 6.46219 2.958C6.46219 2.706 6.41085 2.48667 6.30819 2.3C6.21485 2.11333 6.08419 1.96867 5.91619 1.866C5.75752 1.76333 5.57552 1.712 5.37019 1.712H2.71019Z" fill="white"/>
</svg>
