<svg width="20" height="19" viewBox="0 0 20 19" fill="none" xmlns="http://www.w3.org/2000/svg">
<line x1="0.5" y1="7" x2="0.5" y2="18" stroke="white"/>
<line x1="11.5" y1="7" x2="11.5" y2="18" stroke="white"/>
<line x1="12" y1="18.5" y2="18.5" stroke="white"/>
<line x1="12" y1="7.5" x2="-6.60528e-08" y2="7.5" stroke="white"/>
<path d="M2.5 5V8" stroke="white"/>
<line x1="13.5" y1="5" x2="13.5" y2="16" stroke="white"/>
<line x1="14" y1="16.5" x2="11" y2="16.5" stroke="white"/>
<line x1="14" y1="5.5" x2="2" y2="5.5" stroke="white"/>
<mask id="path-9-inside-1_52_68" fill="white">
<path d="M17 5C17.4945 5 17.9778 4.85338 18.3889 4.57867C18.8 4.30397 19.1205 3.91352 19.3097 3.45671C19.4989 2.99989 19.5484 2.49723 19.452 2.01227C19.3555 1.52732 19.1174 1.08186 18.7678 0.732233C18.4181 0.382602 17.9727 0.1445 17.4877 0.0480369C17.0028 -0.0484263 16.5001 0.00108203 16.0433 0.190301C15.5865 0.37952 15.196 0.699951 14.9213 1.11107C14.6466 1.5222 14.5 2.00555 14.5 2.5L15.5007 2.5C15.5007 2.20347 15.5887 1.9136 15.7534 1.66705C15.9181 1.4205 16.1523 1.22833 16.4263 1.11486C16.7002 1.00138 17.0017 0.97169 17.2925 1.02954C17.5833 1.08739 17.8505 1.23018 18.0601 1.43986C18.2698 1.64953 18.4126 1.91668 18.4705 2.20751C18.5283 2.49834 18.4986 2.79979 18.3851 3.07375C18.2717 3.3477 18.0795 3.58185 17.8329 3.7466C17.5864 3.91134 17.2965 3.99927 17 3.99927L17 5Z"/>
</mask>
<path d="M17 5C17.4945 5 17.9778 4.85338 18.3889 4.57867C18.8 4.30397 19.1205 3.91352 19.3097 3.45671C19.4989 2.99989 19.5484 2.49723 19.452 2.01227C19.3555 1.52732 19.1174 1.08186 18.7678 0.732233C18.4181 0.382602 17.9727 0.1445 17.4877 0.0480369C17.0028 -0.0484263 16.5001 0.00108203 16.0433 0.190301C15.5865 0.37952 15.196 0.699951 14.9213 1.11107C14.6466 1.5222 14.5 2.00555 14.5 2.5L15.5007 2.5C15.5007 2.20347 15.5887 1.9136 15.7534 1.66705C15.9181 1.4205 16.1523 1.22833 16.4263 1.11486C16.7002 1.00138 17.0017 0.97169 17.2925 1.02954C17.5833 1.08739 17.8505 1.23018 18.0601 1.43986C18.2698 1.64953 18.4126 1.91668 18.4705 2.20751C18.5283 2.49834 18.4986 2.79979 18.3851 3.07375C18.2717 3.3477 18.0795 3.58185 17.8329 3.7466C17.5864 3.91134 17.2965 3.99927 17 3.99927L17 5Z" stroke="#0084FF" stroke-width="2" mask="url(#path-9-inside-1_52_68)"/>
<path d="M14.809 2.5H15.191L15 2.88197L14.809 2.5Z" fill="#0084FF" stroke="#0084FF"/>
</svg>
