<svg width="64" height="65" viewBox="0 0 64 65" fill="none" xmlns="http://www.w3.org/2000/svg">
<rect x="0.5" y="0.5" width="57" height="57" fill="#E06A20" stroke="#E06A20"/>
<rect x="6" y="6" width="58" height="58" fill="#161616"/>
<path d="M45.0145 24.15C44.5145 23.5833 43.9311 23.0833 43.2645 22.65C42.5978 22.1833 41.8478 21.7833 41.0145 21.45C40.1811 21.1167 39.2811 20.85 38.3145 20.65C37.3811 20.45 36.3811 20.35 35.3145 20.35C32.2145 20.35 29.9311 20.95 28.4645 22.15C27.0311 23.3167 26.3145 24.9167 26.3145 26.95C26.3145 28.35 26.6478 29.45 27.3145 30.25C28.0145 31.05 29.0978 31.7 30.5645 32.2C32.0311 32.7 33.8978 33.2167 36.1645 33.75C38.6978 34.2833 40.8811 34.9167 42.7145 35.65C44.5478 36.3833 45.9645 37.3833 46.9645 38.65C47.9645 39.8833 48.4645 41.5667 48.4645 43.7C48.4645 45.3333 48.1478 46.75 47.5145 47.95C46.8811 49.15 45.9978 50.15 44.8645 50.95C43.7311 51.75 42.3811 52.35 40.8145 52.75C39.2478 53.1167 37.5311 53.3 35.6645 53.3C33.8311 53.3 32.0645 53.1167 30.3645 52.75C28.6978 52.35 27.1145 51.7833 25.6145 51.05C24.1145 50.2833 22.7145 49.3167 21.4145 48.15L23.1645 45.3C23.7978 45.9667 24.5478 46.6 25.4145 47.2C26.3145 47.7667 27.2978 48.2833 28.3645 48.75C29.4645 49.2167 30.6311 49.5833 31.8645 49.85C33.1311 50.0833 34.4311 50.2 35.7645 50.2C38.5978 50.2 40.7978 49.6833 42.3645 48.65C43.9645 47.6167 44.7645 46.0833 44.7645 44.05C44.7645 42.5833 44.3645 41.4167 43.5645 40.55C42.7645 39.65 41.5645 38.9167 39.9645 38.35C38.3645 37.7833 36.3978 37.2333 34.0645 36.7C31.5978 36.1333 29.5145 35.5 27.8145 34.8C26.1145 34.1 24.8311 33.1833 23.9645 32.05C23.1311 30.8833 22.7145 29.35 22.7145 27.45C22.7145 25.25 23.2478 23.4 24.3145 21.9C25.4145 20.3667 26.9145 19.2167 28.8145 18.45C30.7145 17.65 32.8978 17.25 35.3645 17.25C36.9311 17.25 38.3811 17.4167 39.7145 17.75C41.0811 18.05 42.3311 18.5 43.4645 19.1C44.6311 19.7 45.7145 20.45 46.7145 21.35L45.0145 24.15Z" fill="#E0E0E0"/>
</svg>
