<svg width="11" height="13" viewBox="0 0 11 13" fill="none" xmlns="http://www.w3.org/2000/svg">
<path d="M5.50782 10.07C4.72382 10.07 4.06115 9.93 3.51982 9.65C2.97849 9.37 2.54915 8.99667 2.23182 8.53C1.91449 8.054 1.68115 7.51733 1.53182 6.92C1.39182 6.32267 1.32182 5.70667 1.32182 5.072V0.0599995H2.28782V5.072C2.28782 5.58533 2.33915 6.08933 2.44182 6.584C2.55382 7.07867 2.73115 7.522 2.97382 7.914C3.21649 8.306 3.54315 8.61867 3.95382 8.852C4.36449 9.076 4.87782 9.188 5.49382 9.188C6.12849 9.188 6.65115 9.07133 7.06182 8.838C7.48182 8.59533 7.80849 8.278 8.04182 7.886C8.28449 7.494 8.45715 7.05533 8.55982 6.57C8.66249 6.07533 8.71382 5.576 8.71382 5.072V0.0599995H9.69382V5.072C9.69382 5.73467 9.61915 6.36933 9.46982 6.976C9.32049 7.58267 9.07782 8.11467 8.74182 8.572C8.41515 9.02933 7.98582 9.39333 7.45382 9.664C6.92182 9.93467 6.27315 10.07 5.50782 10.07Z" fill="white"/>
<path d="M0.21582 11.75H10.7858V12.45H0.21582V11.75Z" fill="white"/>
</svg>
